<mxfile host="app.diagrams.net" modified="2023-10-06T17:19:27.461Z" agent="Mozilla/5.0 (Windows NT 10.0; Win64; x64) AppleWebKit/537.36 (KHTML, like Gecko) Chrome/117.0.0.0 Safari/537.36" etag="_Twg1lrBytSPnTkKf9aR" version="22.0.3" type="device">
  <diagram id="R2lEEEUBdFMjLlhIrx00" name="Page-1">
    <mxGraphModel dx="1075" dy="1035" grid="1" gridSize="10" guides="1" tooltips="1" connect="1" arrows="1" fold="1" page="1" pageScale="1" pageWidth="413" pageHeight="583" math="0" shadow="0" extFonts="Permanent Marker^https://fonts.googleapis.com/css?family=Permanent+Marker">
      <root>
        <mxCell id="0" />
        <mxCell id="1" parent="0" />
        <mxCell id="zIdgOsClNJzlHkxYG_Qh-1" value="Policy holder/user" style="rounded=0;whiteSpace=wrap;html=1;" parent="1" vertex="1">
          <mxGeometry x="230" y="40" width="120" height="50" as="geometry" />
        </mxCell>
        <mxCell id="zIdgOsClNJzlHkxYG_Qh-2" value="buys" style="rhombus;whiteSpace=wrap;html=1;rounded=0;" parent="1" vertex="1">
          <mxGeometry x="250" y="240" width="80" height="80" as="geometry" />
        </mxCell>
        <mxCell id="zIdgOsClNJzlHkxYG_Qh-5" value="policy" style="whiteSpace=wrap;html=1;rounded=0;" parent="1" vertex="1">
          <mxGeometry x="230" y="430" width="120" height="60" as="geometry" />
        </mxCell>
        <mxCell id="zIdgOsClNJzlHkxYG_Qh-9" value="user id" style="ellipse;whiteSpace=wrap;html=1;" parent="1" vertex="1">
          <mxGeometry x="160" y="-165" width="120" height="55" as="geometry" />
        </mxCell>
        <mxCell id="zIdgOsClNJzlHkxYG_Qh-11" value="password" style="ellipse;whiteSpace=wrap;html=1;" parent="1" vertex="1">
          <mxGeometry x="310" y="-130" width="120" height="50" as="geometry" />
        </mxCell>
        <mxCell id="zIdgOsClNJzlHkxYG_Qh-13" value="" style="endArrow=none;html=1;rounded=0;entryX=0.5;entryY=1;entryDx=0;entryDy=0;exitX=0.5;exitY=0;exitDx=0;exitDy=0;" parent="1" source="zIdgOsClNJzlHkxYG_Qh-1" target="zIdgOsClNJzlHkxYG_Qh-9" edge="1">
          <mxGeometry width="50" height="50" relative="1" as="geometry">
            <mxPoint x="380" y="130" as="sourcePoint" />
            <mxPoint x="430" y="80" as="targetPoint" />
          </mxGeometry>
        </mxCell>
        <mxCell id="zIdgOsClNJzlHkxYG_Qh-14" value="contact no" style="ellipse;whiteSpace=wrap;html=1;" parent="1" vertex="1">
          <mxGeometry x="10" y="30" width="120" height="60" as="geometry" />
        </mxCell>
        <mxCell id="zIdgOsClNJzlHkxYG_Qh-15" value="user name" style="ellipse;whiteSpace=wrap;html=1;" parent="1" vertex="1">
          <mxGeometry x="50" y="-80" width="120" height="50" as="geometry" />
        </mxCell>
        <mxCell id="zIdgOsClNJzlHkxYG_Qh-17" value="" style="endArrow=none;html=1;rounded=0;exitX=1.02;exitY=0.6;exitDx=0;exitDy=0;exitPerimeter=0;entryX=0;entryY=0.5;entryDx=0;entryDy=0;" parent="1" source="zIdgOsClNJzlHkxYG_Qh-14" target="zIdgOsClNJzlHkxYG_Qh-1" edge="1">
          <mxGeometry width="50" height="50" relative="1" as="geometry">
            <mxPoint x="300" y="140" as="sourcePoint" />
            <mxPoint x="220" y="65" as="targetPoint" />
          </mxGeometry>
        </mxCell>
        <mxCell id="zIdgOsClNJzlHkxYG_Qh-18" value="" style="endArrow=none;html=1;rounded=0;entryX=0;entryY=0;entryDx=0;entryDy=0;exitX=1;exitY=1;exitDx=0;exitDy=0;" parent="1" source="zIdgOsClNJzlHkxYG_Qh-15" target="zIdgOsClNJzlHkxYG_Qh-1" edge="1">
          <mxGeometry width="50" height="50" relative="1" as="geometry">
            <mxPoint x="300" y="110" as="sourcePoint" />
            <mxPoint x="350" y="60" as="targetPoint" />
          </mxGeometry>
        </mxCell>
        <mxCell id="zIdgOsClNJzlHkxYG_Qh-28" value="policy type" style="ellipse;whiteSpace=wrap;html=1;" parent="1" vertex="1">
          <mxGeometry x="140" y="567.5" width="120" height="55" as="geometry" />
        </mxCell>
        <mxCell id="zIdgOsClNJzlHkxYG_Qh-29" value="policy no." style="ellipse;whiteSpace=wrap;html=1;" parent="1" vertex="1">
          <mxGeometry x="40" y="500" width="120" height="60" as="geometry" />
        </mxCell>
        <mxCell id="zIdgOsClNJzlHkxYG_Qh-30" value="polidy id" style="ellipse;whiteSpace=wrap;html=1;" parent="1" vertex="1">
          <mxGeometry x="20" y="430" width="120" height="60" as="geometry" />
        </mxCell>
        <mxCell id="zIdgOsClNJzlHkxYG_Qh-31" value="has" style="rhombus;whiteSpace=wrap;html=1;rounded=0;" parent="1" vertex="1">
          <mxGeometry x="540" y="420" width="80" height="80" as="geometry" />
        </mxCell>
        <mxCell id="zIdgOsClNJzlHkxYG_Qh-33" value="claim" style="whiteSpace=wrap;html=1;rounded=0;" parent="1" vertex="1">
          <mxGeometry x="740" y="430" width="120" height="60" as="geometry" />
        </mxCell>
        <mxCell id="zIdgOsClNJzlHkxYG_Qh-40" value="Owns" style="rhombus;whiteSpace=wrap;html=1;rounded=0;" parent="1" vertex="1">
          <mxGeometry x="520" y="25" width="80" height="80" as="geometry" />
        </mxCell>
        <mxCell id="zIdgOsClNJzlHkxYG_Qh-42" value="Car" style="whiteSpace=wrap;html=1;rounded=0;" parent="1" vertex="1">
          <mxGeometry x="750" y="35" width="120" height="60" as="geometry" />
        </mxCell>
        <mxCell id="zIdgOsClNJzlHkxYG_Qh-44" value="car model" style="ellipse;whiteSpace=wrap;html=1;" parent="1" vertex="1">
          <mxGeometry x="890" y="-120" width="120" height="60" as="geometry" />
        </mxCell>
        <mxCell id="zIdgOsClNJzlHkxYG_Qh-45" value="Car Make" style="ellipse;whiteSpace=wrap;html=1;" parent="1" vertex="1">
          <mxGeometry x="1020" y="-60" width="120" height="60" as="geometry" />
        </mxCell>
        <mxCell id="zIdgOsClNJzlHkxYG_Qh-46" value="car id" style="ellipse;whiteSpace=wrap;html=1;" parent="1" vertex="1">
          <mxGeometry x="750" y="-145" width="120" height="65" as="geometry" />
        </mxCell>
        <mxCell id="zIdgOsClNJzlHkxYG_Qh-50" value="" style="endArrow=none;html=1;rounded=0;exitX=0.5;exitY=0;exitDx=0;exitDy=0;" parent="1" source="zIdgOsClNJzlHkxYG_Qh-42" target="zIdgOsClNJzlHkxYG_Qh-46" edge="1">
          <mxGeometry width="50" height="50" relative="1" as="geometry">
            <mxPoint x="740" y="130" as="sourcePoint" />
            <mxPoint x="790" y="80" as="targetPoint" />
            <Array as="points" />
          </mxGeometry>
        </mxCell>
        <mxCell id="zIdgOsClNJzlHkxYG_Qh-51" value="" style="endArrow=none;html=1;rounded=0;exitX=1;exitY=0;exitDx=0;exitDy=0;entryX=0.253;entryY=0.961;entryDx=0;entryDy=0;entryPerimeter=0;" parent="1" source="zIdgOsClNJzlHkxYG_Qh-42" target="zIdgOsClNJzlHkxYG_Qh-44" edge="1">
          <mxGeometry width="50" height="50" relative="1" as="geometry">
            <mxPoint x="900" y="43.72" as="sourcePoint" />
            <mxPoint x="920" y="-60" as="targetPoint" />
          </mxGeometry>
        </mxCell>
        <mxCell id="zIdgOsClNJzlHkxYG_Qh-52" value="" style="endArrow=none;html=1;rounded=0;exitX=1;exitY=0.5;exitDx=0;exitDy=0;entryX=0;entryY=0.667;entryDx=0;entryDy=0;entryPerimeter=0;" parent="1" source="zIdgOsClNJzlHkxYG_Qh-42" target="zIdgOsClNJzlHkxYG_Qh-45" edge="1">
          <mxGeometry width="50" height="50" relative="1" as="geometry">
            <mxPoint x="910" y="85" as="sourcePoint" />
            <mxPoint x="960" y="35" as="targetPoint" />
          </mxGeometry>
        </mxCell>
        <mxCell id="zIdgOsClNJzlHkxYG_Qh-55" value="claim id" style="ellipse;whiteSpace=wrap;html=1;" parent="1" vertex="1">
          <mxGeometry x="730" y="292" width="120" height="60" as="geometry" />
        </mxCell>
        <mxCell id="zIdgOsClNJzlHkxYG_Qh-56" value="user id" style="ellipse;whiteSpace=wrap;html=1;" parent="1" vertex="1">
          <mxGeometry x="870" y="305" width="120" height="60" as="geometry" />
        </mxCell>
        <mxCell id="zIdgOsClNJzlHkxYG_Qh-57" value="policy&amp;nbsp; no." style="ellipse;whiteSpace=wrap;html=1;" parent="1" vertex="1">
          <mxGeometry x="940" y="380" width="120" height="60" as="geometry" />
        </mxCell>
        <mxCell id="zIdgOsClNJzlHkxYG_Qh-58" value="issued date" style="ellipse;whiteSpace=wrap;html=1;" parent="1" vertex="1">
          <mxGeometry x="740" y="560" width="120" height="60" as="geometry" />
        </mxCell>
        <mxCell id="zIdgOsClNJzlHkxYG_Qh-65" value="status" style="ellipse;whiteSpace=wrap;html=1;" parent="1" vertex="1">
          <mxGeometry x="890" y="550" width="120" height="60" as="geometry" />
        </mxCell>
        <mxCell id="zIdgOsClNJzlHkxYG_Qh-67" value="has" style="rhombus;whiteSpace=wrap;html=1;rounded=0;" parent="1" vertex="1">
          <mxGeometry x="250" y="660" width="80" height="80" as="geometry" />
        </mxCell>
        <mxCell id="zIdgOsClNJzlHkxYG_Qh-69" value="payment" style="rounded=0;whiteSpace=wrap;html=1;" parent="1" vertex="1">
          <mxGeometry x="230" y="820" width="120" height="60" as="geometry" />
        </mxCell>
        <mxCell id="zIdgOsClNJzlHkxYG_Qh-71" value="payment date" style="ellipse;whiteSpace=wrap;html=1;" parent="1" vertex="1">
          <mxGeometry x="400" y="820" width="140" height="60" as="geometry" />
        </mxCell>
        <mxCell id="zIdgOsClNJzlHkxYG_Qh-72" value="payment id" style="ellipse;whiteSpace=wrap;html=1;" parent="1" vertex="1">
          <mxGeometry x="50" y="820" width="130" height="60" as="geometry" />
        </mxCell>
        <mxCell id="zIdgOsClNJzlHkxYG_Qh-73" value="payment amount" style="ellipse;whiteSpace=wrap;html=1;" parent="1" vertex="1">
          <mxGeometry x="225" y="930" width="130" height="60" as="geometry" />
        </mxCell>
        <mxCell id="o9snIOjgkX9ZFz9xJxWh-1" value="" style="endArrow=none;html=1;rounded=0;exitX=0.75;exitY=0;exitDx=0;exitDy=0;" parent="1" source="zIdgOsClNJzlHkxYG_Qh-1" target="zIdgOsClNJzlHkxYG_Qh-11" edge="1">
          <mxGeometry relative="1" as="geometry">
            <mxPoint x="280" y="28.569999999999993" as="sourcePoint" />
            <mxPoint x="440" y="28.569999999999993" as="targetPoint" />
          </mxGeometry>
        </mxCell>
        <mxCell id="o9snIOjgkX9ZFz9xJxWh-2" style="edgeStyle=orthogonalEdgeStyle;rounded=0;orthogonalLoop=1;jettySize=auto;html=1;exitX=0.5;exitY=1;exitDx=0;exitDy=0;" parent="1" edge="1">
          <mxGeometry relative="1" as="geometry">
            <mxPoint x="59.99999999999977" y="105" as="sourcePoint" />
            <mxPoint x="59.99999999999977" y="105" as="targetPoint" />
          </mxGeometry>
        </mxCell>
        <mxCell id="o9snIOjgkX9ZFz9xJxWh-8" value="" style="endArrow=none;html=1;rounded=0;entryX=0;entryY=1;entryDx=0;entryDy=0;exitX=1;exitY=0;exitDx=0;exitDy=0;" parent="1" source="o9snIOjgkX9ZFz9xJxWh-10" target="zIdgOsClNJzlHkxYG_Qh-1" edge="1">
          <mxGeometry relative="1" as="geometry">
            <mxPoint x="180" y="129.29" as="sourcePoint" />
            <mxPoint x="340" y="129.29" as="targetPoint" />
          </mxGeometry>
        </mxCell>
        <mxCell id="o9snIOjgkX9ZFz9xJxWh-10" value="user address" style="ellipse;whiteSpace=wrap;html=1;align=center;" parent="1" vertex="1">
          <mxGeometry x="70" y="120" width="110" height="50" as="geometry" />
        </mxCell>
        <mxCell id="o9snIOjgkX9ZFz9xJxWh-11" value="registraction no." style="ellipse;whiteSpace=wrap;html=1;align=center;" parent="1" vertex="1">
          <mxGeometry x="913" y="160" width="120" height="60" as="geometry" />
        </mxCell>
        <mxCell id="o9snIOjgkX9ZFz9xJxWh-12" value="" style="endArrow=none;html=1;rounded=0;exitX=0.652;exitY=0.983;exitDx=0;exitDy=0;exitPerimeter=0;" parent="1" source="zIdgOsClNJzlHkxYG_Qh-42" target="o9snIOjgkX9ZFz9xJxWh-11" edge="1">
          <mxGeometry relative="1" as="geometry">
            <mxPoint x="790" y="130" as="sourcePoint" />
            <mxPoint x="950" y="130" as="targetPoint" />
          </mxGeometry>
        </mxCell>
        <mxCell id="o9snIOjgkX9ZFz9xJxWh-15" value="end date" style="ellipse;whiteSpace=wrap;html=1;align=center;" parent="1" vertex="1">
          <mxGeometry x="300" y="590" width="120" height="50" as="geometry" />
        </mxCell>
        <mxCell id="o9snIOjgkX9ZFz9xJxWh-16" value="start date" style="ellipse;whiteSpace=wrap;html=1;align=center;" parent="1" vertex="1">
          <mxGeometry x="420" y="560" width="120" height="50" as="geometry" />
        </mxCell>
        <mxCell id="o9snIOjgkX9ZFz9xJxWh-17" value="" style="endArrow=none;html=1;rounded=0;entryX=0;entryY=0.5;entryDx=0;entryDy=0;exitX=1;exitY=0.5;exitDx=0;exitDy=0;" parent="1" source="zIdgOsClNJzlHkxYG_Qh-30" target="zIdgOsClNJzlHkxYG_Qh-5" edge="1">
          <mxGeometry relative="1" as="geometry">
            <mxPoint x="150" y="468.57" as="sourcePoint" />
            <mxPoint x="310" y="468.57" as="targetPoint" />
          </mxGeometry>
        </mxCell>
        <mxCell id="o9snIOjgkX9ZFz9xJxWh-19" value="" style="endArrow=none;html=1;rounded=0;entryX=0;entryY=1;entryDx=0;entryDy=0;exitX=0.979;exitY=0.35;exitDx=0;exitDy=0;exitPerimeter=0;" parent="1" source="zIdgOsClNJzlHkxYG_Qh-29" target="zIdgOsClNJzlHkxYG_Qh-5" edge="1">
          <mxGeometry relative="1" as="geometry">
            <mxPoint x="180" y="519.29" as="sourcePoint" />
            <mxPoint x="340" y="519.29" as="targetPoint" />
          </mxGeometry>
        </mxCell>
        <mxCell id="o9snIOjgkX9ZFz9xJxWh-20" value="" style="endArrow=none;html=1;rounded=0;entryX=0.25;entryY=1;entryDx=0;entryDy=0;exitX=0.5;exitY=0;exitDx=0;exitDy=0;" parent="1" source="zIdgOsClNJzlHkxYG_Qh-28" target="zIdgOsClNJzlHkxYG_Qh-5" edge="1">
          <mxGeometry relative="1" as="geometry">
            <mxPoint x="210" y="560" as="sourcePoint" />
            <mxPoint x="370" y="560" as="targetPoint" />
          </mxGeometry>
        </mxCell>
        <mxCell id="o9snIOjgkX9ZFz9xJxWh-22" value="" style="endArrow=none;html=1;rounded=0;entryX=0.295;entryY=0.109;entryDx=0;entryDy=0;entryPerimeter=0;exitX=0.669;exitY=1.01;exitDx=0;exitDy=0;exitPerimeter=0;" parent="1" source="zIdgOsClNJzlHkxYG_Qh-5" target="o9snIOjgkX9ZFz9xJxWh-15" edge="1">
          <mxGeometry relative="1" as="geometry">
            <mxPoint x="300" y="510" as="sourcePoint" />
            <mxPoint x="460" y="510" as="targetPoint" />
          </mxGeometry>
        </mxCell>
        <mxCell id="o9snIOjgkX9ZFz9xJxWh-23" value="" style="endArrow=none;html=1;rounded=0;exitX=0.879;exitY=1.029;exitDx=0;exitDy=0;exitPerimeter=0;" parent="1" source="zIdgOsClNJzlHkxYG_Qh-5" target="o9snIOjgkX9ZFz9xJxWh-16" edge="1">
          <mxGeometry relative="1" as="geometry">
            <mxPoint x="310" y="490" as="sourcePoint" />
            <mxPoint x="470" y="490" as="targetPoint" />
          </mxGeometry>
        </mxCell>
        <mxCell id="o9snIOjgkX9ZFz9xJxWh-24" value="" style="endArrow=none;html=1;rounded=0;entryX=0.5;entryY=0;entryDx=0;entryDy=0;exitX=0.595;exitY=1.093;exitDx=0;exitDy=0;exitPerimeter=0;" parent="1" source="zIdgOsClNJzlHkxYG_Qh-55" target="zIdgOsClNJzlHkxYG_Qh-33" edge="1">
          <mxGeometry relative="1" as="geometry">
            <mxPoint x="590" y="320" as="sourcePoint" />
            <mxPoint x="750" y="320" as="targetPoint" />
          </mxGeometry>
        </mxCell>
        <mxCell id="o9snIOjgkX9ZFz9xJxWh-25" value="" style="endArrow=none;html=1;rounded=0;entryX=0;entryY=1;entryDx=0;entryDy=0;exitX=1;exitY=0;exitDx=0;exitDy=0;" parent="1" source="zIdgOsClNJzlHkxYG_Qh-33" target="zIdgOsClNJzlHkxYG_Qh-56" edge="1">
          <mxGeometry relative="1" as="geometry">
            <mxPoint x="820" y="420" as="sourcePoint" />
            <mxPoint x="980" y="420" as="targetPoint" />
          </mxGeometry>
        </mxCell>
        <mxCell id="o9snIOjgkX9ZFz9xJxWh-26" value="" style="endArrow=none;html=1;rounded=0;exitX=1;exitY=0.5;exitDx=0;exitDy=0;entryX=0;entryY=0.5;entryDx=0;entryDy=0;" parent="1" source="zIdgOsClNJzlHkxYG_Qh-33" target="zIdgOsClNJzlHkxYG_Qh-57" edge="1">
          <mxGeometry relative="1" as="geometry">
            <mxPoint x="870" y="469" as="sourcePoint" />
            <mxPoint x="930" y="469" as="targetPoint" />
          </mxGeometry>
        </mxCell>
        <mxCell id="o9snIOjgkX9ZFz9xJxWh-27" value="" style="endArrow=none;html=1;rounded=0;entryX=0;entryY=0;entryDx=0;entryDy=0;exitX=1;exitY=1;exitDx=0;exitDy=0;" parent="1" source="zIdgOsClNJzlHkxYG_Qh-33" target="zIdgOsClNJzlHkxYG_Qh-65" edge="1">
          <mxGeometry relative="1" as="geometry">
            <mxPoint x="710" y="510" as="sourcePoint" />
            <mxPoint x="870" y="510" as="targetPoint" />
          </mxGeometry>
        </mxCell>
        <mxCell id="o9snIOjgkX9ZFz9xJxWh-29" value="" style="endArrow=none;html=1;rounded=0;entryX=0.5;entryY=0;entryDx=0;entryDy=0;" parent="1" target="zIdgOsClNJzlHkxYG_Qh-58" edge="1">
          <mxGeometry relative="1" as="geometry">
            <mxPoint x="800" y="490" as="sourcePoint" />
            <mxPoint x="770" y="520" as="targetPoint" />
          </mxGeometry>
        </mxCell>
        <mxCell id="o9snIOjgkX9ZFz9xJxWh-31" value="" style="endArrow=none;html=1;rounded=0;entryX=0;entryY=0.5;entryDx=0;entryDy=0;exitX=1;exitY=0.5;exitDx=0;exitDy=0;exitPerimeter=0;" parent="1" source="zIdgOsClNJzlHkxYG_Qh-69" target="zIdgOsClNJzlHkxYG_Qh-71" edge="1">
          <mxGeometry relative="1" as="geometry">
            <mxPoint x="320" y="820" as="sourcePoint" />
            <mxPoint x="480" y="820" as="targetPoint" />
          </mxGeometry>
        </mxCell>
        <mxCell id="o9snIOjgkX9ZFz9xJxWh-32" value="" style="endArrow=none;html=1;rounded=0;entryX=0.5;entryY=0;entryDx=0;entryDy=0;exitX=0.5;exitY=1;exitDx=0;exitDy=0;" parent="1" source="zIdgOsClNJzlHkxYG_Qh-69" target="zIdgOsClNJzlHkxYG_Qh-73" edge="1">
          <mxGeometry relative="1" as="geometry">
            <mxPoint x="230" y="910" as="sourcePoint" />
            <mxPoint x="390" y="910" as="targetPoint" />
          </mxGeometry>
        </mxCell>
        <mxCell id="o9snIOjgkX9ZFz9xJxWh-33" value="" style="endArrow=none;html=1;rounded=0;" parent="1" edge="1">
          <mxGeometry relative="1" as="geometry">
            <mxPoint x="180" y="849" as="sourcePoint" />
            <mxPoint x="230" y="849" as="targetPoint" />
          </mxGeometry>
        </mxCell>
        <mxCell id="o9snIOjgkX9ZFz9xJxWh-39" value="" style="fontSize=12;html=1;endArrow=ERoneToMany;rounded=0;entryX=0.5;entryY=0;entryDx=0;entryDy=0;" parent="1" source="zIdgOsClNJzlHkxYG_Qh-2" target="zIdgOsClNJzlHkxYG_Qh-5" edge="1">
          <mxGeometry width="100" height="100" relative="1" as="geometry">
            <mxPoint x="490" y="205" as="sourcePoint" />
            <mxPoint x="590" y="105" as="targetPoint" />
          </mxGeometry>
        </mxCell>
        <mxCell id="o9snIOjgkX9ZFz9xJxWh-45" value="" style="fontSize=12;html=1;endArrow=ERoneToMany;rounded=0;exitX=0.5;exitY=1;exitDx=0;exitDy=0;entryX=0.5;entryY=0;entryDx=0;entryDy=0;" parent="1" source="zIdgOsClNJzlHkxYG_Qh-67" target="zIdgOsClNJzlHkxYG_Qh-69" edge="1">
          <mxGeometry width="100" height="100" relative="1" as="geometry">
            <mxPoint x="290" y="830" as="sourcePoint" />
            <mxPoint x="290" y="810" as="targetPoint" />
          </mxGeometry>
        </mxCell>
        <mxCell id="o9snIOjgkX9ZFz9xJxWh-46" value="" style="fontSize=12;html=1;endArrow=ERoneToMany;rounded=0;entryX=0.5;entryY=1;entryDx=0;entryDy=0;" parent="1" source="zIdgOsClNJzlHkxYG_Qh-67" target="zIdgOsClNJzlHkxYG_Qh-5" edge="1">
          <mxGeometry width="100" height="100" relative="1" as="geometry">
            <mxPoint x="270" y="660" as="sourcePoint" />
            <mxPoint x="340" y="510" as="targetPoint" />
          </mxGeometry>
        </mxCell>
        <mxCell id="o9snIOjgkX9ZFz9xJxWh-52" value="" style="edgeStyle=entityRelationEdgeStyle;fontSize=12;html=1;endArrow=ERmany;rounded=0;exitX=1;exitY=0.5;exitDx=0;exitDy=0;" parent="1" source="zIdgOsClNJzlHkxYG_Qh-31" edge="1">
          <mxGeometry width="100" height="100" relative="1" as="geometry">
            <mxPoint x="650" y="560" as="sourcePoint" />
            <mxPoint x="740" y="460" as="targetPoint" />
          </mxGeometry>
        </mxCell>
        <mxCell id="o9snIOjgkX9ZFz9xJxWh-53" value="" style="fontSize=12;html=1;endArrow=ERone;endFill=1;rounded=0;exitX=0;exitY=0.5;exitDx=0;exitDy=0;entryX=1;entryY=0.5;entryDx=0;entryDy=0;" parent="1" source="zIdgOsClNJzlHkxYG_Qh-40" target="zIdgOsClNJzlHkxYG_Qh-1" edge="1">
          <mxGeometry width="100" height="100" relative="1" as="geometry">
            <mxPoint x="400" y="135" as="sourcePoint" />
            <mxPoint x="370" y="56" as="targetPoint" />
          </mxGeometry>
        </mxCell>
        <mxCell id="o9snIOjgkX9ZFz9xJxWh-54" value="" style="fontSize=12;html=1;endArrow=ERone;endFill=1;rounded=0;exitX=0.5;exitY=0;exitDx=0;exitDy=0;" parent="1" source="zIdgOsClNJzlHkxYG_Qh-2" target="zIdgOsClNJzlHkxYG_Qh-1" edge="1">
          <mxGeometry width="100" height="100" relative="1" as="geometry">
            <mxPoint x="270" y="220" as="sourcePoint" />
            <mxPoint x="320" y="120" as="targetPoint" />
          </mxGeometry>
        </mxCell>
        <mxCell id="o9snIOjgkX9ZFz9xJxWh-55" value="" style="fontSize=12;html=1;endArrow=ERmany;rounded=0;entryX=0;entryY=0.5;entryDx=0;entryDy=0;exitX=1;exitY=0.5;exitDx=0;exitDy=0;" parent="1" source="zIdgOsClNJzlHkxYG_Qh-40" target="zIdgOsClNJzlHkxYG_Qh-42" edge="1">
          <mxGeometry width="100" height="100" relative="1" as="geometry">
            <mxPoint x="640" y="70" as="sourcePoint" />
            <mxPoint x="740" y="-30" as="targetPoint" />
          </mxGeometry>
        </mxCell>
        <mxCell id="ejTaQORxtFn_5ADnlSRF-1" value="" style="fontSize=12;html=1;endArrow=ERone;endFill=1;rounded=0;" parent="1" edge="1">
          <mxGeometry width="100" height="100" relative="1" as="geometry">
            <mxPoint x="540" y="459.28999999999996" as="sourcePoint" />
            <mxPoint x="350" y="450" as="targetPoint" />
          </mxGeometry>
        </mxCell>
        <mxCell id="XFNJ20lcyuI-j8cD9FlE-1" value="policy no." style="ellipse;whiteSpace=wrap;html=1;" parent="1" vertex="1">
          <mxGeometry x="1020" y="100" width="120" height="60" as="geometry" />
        </mxCell>
        <mxCell id="XFNJ20lcyuI-j8cD9FlE-2" value="" style="endArrow=none;html=1;rounded=0;exitX=1;exitY=0.75;exitDx=0;exitDy=0;entryX=0;entryY=0.5;entryDx=0;entryDy=0;" parent="1" source="zIdgOsClNJzlHkxYG_Qh-42" target="XFNJ20lcyuI-j8cD9FlE-1" edge="1">
          <mxGeometry width="50" height="50" relative="1" as="geometry">
            <mxPoint x="930" y="95" as="sourcePoint" />
            <mxPoint x="980" y="45" as="targetPoint" />
          </mxGeometry>
        </mxCell>
        <mxCell id="XFNJ20lcyuI-j8cD9FlE-3" value="claim amount" style="ellipse;whiteSpace=wrap;html=1;" parent="1" vertex="1">
          <mxGeometry x="950" y="470" width="120" height="60" as="geometry" />
        </mxCell>
        <mxCell id="XFNJ20lcyuI-j8cD9FlE-4" value="" style="endArrow=none;html=1;rounded=0;exitX=1;exitY=0.75;exitDx=0;exitDy=0;" parent="1" source="zIdgOsClNJzlHkxYG_Qh-33" target="XFNJ20lcyuI-j8cD9FlE-3" edge="1">
          <mxGeometry width="50" height="50" relative="1" as="geometry">
            <mxPoint x="890" y="500" as="sourcePoint" />
            <mxPoint x="940" y="450" as="targetPoint" />
          </mxGeometry>
        </mxCell>
        <mxCell id="jeIi-QctBxb_zN-niFde-1" value="Premium Amount" style="ellipse;whiteSpace=wrap;html=1;" parent="1" vertex="1">
          <mxGeometry x="450" y="490" width="120" height="50" as="geometry" />
        </mxCell>
        <mxCell id="jeIi-QctBxb_zN-niFde-2" value="" style="endArrow=none;html=1;rounded=0;entryX=0.005;entryY=0.245;entryDx=0;entryDy=0;entryPerimeter=0;exitX=1;exitY=0.667;exitDx=0;exitDy=0;exitPerimeter=0;" parent="1" source="zIdgOsClNJzlHkxYG_Qh-5" target="jeIi-QctBxb_zN-niFde-1" edge="1">
          <mxGeometry width="50" height="50" relative="1" as="geometry">
            <mxPoint x="360" y="475" as="sourcePoint" />
            <mxPoint x="395" y="425" as="targetPoint" />
          </mxGeometry>
        </mxCell>
        <mxCell id="jeIi-QctBxb_zN-niFde-3" value="VIN" style="ellipse;whiteSpace=wrap;html=1;" parent="1" vertex="1">
          <mxGeometry x="770" y="170" width="120" height="50" as="geometry" />
        </mxCell>
        <mxCell id="jeIi-QctBxb_zN-niFde-4" value="" style="endArrow=none;html=1;rounded=0;exitX=0.405;exitY=0.052;exitDx=0;exitDy=0;exitPerimeter=0;" parent="1" source="jeIi-QctBxb_zN-niFde-3" edge="1">
          <mxGeometry width="50" height="50" relative="1" as="geometry">
            <mxPoint x="765" y="140" as="sourcePoint" />
            <mxPoint x="815" y="90" as="targetPoint" />
          </mxGeometry>
        </mxCell>
        <mxCell id="bY0i02iAwmUVIYGJgVDJ-3" value="year" style="ellipse;whiteSpace=wrap;html=1;" parent="1" vertex="1">
          <mxGeometry x="1080" y="25" width="120" height="60" as="geometry" />
        </mxCell>
        <mxCell id="bY0i02iAwmUVIYGJgVDJ-4" value="" style="endArrow=none;html=1;rounded=0;entryX=0.003;entryY=0.654;entryDx=0;entryDy=0;entryPerimeter=0;" parent="1" target="bY0i02iAwmUVIYGJgVDJ-3" edge="1">
          <mxGeometry width="50" height="50" relative="1" as="geometry">
            <mxPoint x="870" y="70" as="sourcePoint" />
            <mxPoint x="960" y="25" as="targetPoint" />
          </mxGeometry>
        </mxCell>
        <mxCell id="bY0i02iAwmUVIYGJgVDJ-6" value="Admin" style="rounded=0;whiteSpace=wrap;html=1;" parent="1" vertex="1">
          <mxGeometry x="540" y="-321" width="120" height="60" as="geometry" />
        </mxCell>
        <mxCell id="bY0i02iAwmUVIYGJgVDJ-7" value="user name" style="ellipse;whiteSpace=wrap;html=1;" parent="1" vertex="1">
          <mxGeometry x="355" y="-321" width="120" height="60" as="geometry" />
        </mxCell>
        <mxCell id="bY0i02iAwmUVIYGJgVDJ-8" value="admin id" style="ellipse;whiteSpace=wrap;html=1;" parent="1" vertex="1">
          <mxGeometry x="549.5" y="-490" width="120" height="60" as="geometry" />
        </mxCell>
        <mxCell id="bY0i02iAwmUVIYGJgVDJ-9" value="password" style="ellipse;whiteSpace=wrap;html=1;" parent="1" vertex="1">
          <mxGeometry x="750" y="-321" width="120" height="60" as="geometry" />
        </mxCell>
        <mxCell id="bY0i02iAwmUVIYGJgVDJ-10" value="name" style="ellipse;whiteSpace=wrap;html=1;" parent="1" vertex="1">
          <mxGeometry x="400" y="-430" width="120" height="60" as="geometry" />
        </mxCell>
        <mxCell id="bY0i02iAwmUVIYGJgVDJ-11" value="email address" style="ellipse;whiteSpace=wrap;html=1;" parent="1" vertex="1">
          <mxGeometry x="690" y="-440" width="120" height="60" as="geometry" />
        </mxCell>
        <mxCell id="bY0i02iAwmUVIYGJgVDJ-12" value="" style="endArrow=none;html=1;rounded=0;entryX=0;entryY=0.5;entryDx=0;entryDy=0;exitX=1;exitY=0.5;exitDx=0;exitDy=0;" parent="1" source="bY0i02iAwmUVIYGJgVDJ-7" target="bY0i02iAwmUVIYGJgVDJ-6" edge="1">
          <mxGeometry width="50" height="50" relative="1" as="geometry">
            <mxPoint x="450" y="-220" as="sourcePoint" />
            <mxPoint x="485" y="-270" as="targetPoint" />
          </mxGeometry>
        </mxCell>
        <mxCell id="bY0i02iAwmUVIYGJgVDJ-13" value="" style="endArrow=none;html=1;rounded=0;entryX=0.25;entryY=0;entryDx=0;entryDy=0;exitX=1;exitY=1;exitDx=0;exitDy=0;" parent="1" source="bY0i02iAwmUVIYGJgVDJ-10" target="bY0i02iAwmUVIYGJgVDJ-6" edge="1">
          <mxGeometry width="50" height="50" relative="1" as="geometry">
            <mxPoint x="500" y="-280" as="sourcePoint" />
            <mxPoint x="550" y="-330" as="targetPoint" />
          </mxGeometry>
        </mxCell>
        <mxCell id="bY0i02iAwmUVIYGJgVDJ-17" value="" style="endArrow=none;html=1;rounded=0;exitX=0.5;exitY=0;exitDx=0;exitDy=0;" parent="1" source="bY0i02iAwmUVIYGJgVDJ-6" edge="1">
          <mxGeometry width="50" height="50" relative="1" as="geometry">
            <mxPoint x="610.68" y="-330" as="sourcePoint" />
            <mxPoint x="608" y="-428" as="targetPoint" />
          </mxGeometry>
        </mxCell>
        <mxCell id="bY0i02iAwmUVIYGJgVDJ-18" value="" style="endArrow=none;html=1;rounded=0;exitX=1;exitY=0;exitDx=0;exitDy=0;entryX=0;entryY=1;entryDx=0;entryDy=0;" parent="1" source="bY0i02iAwmUVIYGJgVDJ-6" target="bY0i02iAwmUVIYGJgVDJ-11" edge="1">
          <mxGeometry width="50" height="50" relative="1" as="geometry">
            <mxPoint x="640" y="-250" as="sourcePoint" />
            <mxPoint x="700" y="-300" as="targetPoint" />
          </mxGeometry>
        </mxCell>
        <mxCell id="bY0i02iAwmUVIYGJgVDJ-19" value="" style="endArrow=none;html=1;rounded=0;entryX=0;entryY=0.5;entryDx=0;entryDy=0;exitX=1;exitY=0.5;exitDx=0;exitDy=0;" parent="1" source="bY0i02iAwmUVIYGJgVDJ-6" target="bY0i02iAwmUVIYGJgVDJ-9" edge="1">
          <mxGeometry width="50" height="50" relative="1" as="geometry">
            <mxPoint x="630" y="-220" as="sourcePoint" />
            <mxPoint x="670" y="-255" as="targetPoint" />
          </mxGeometry>
        </mxCell>
        <mxCell id="bY0i02iAwmUVIYGJgVDJ-22" value="" style="endArrow=none;html=1;rounded=0;entryX=0.5;entryY=1;entryDx=0;entryDy=0;exitX=0.5;exitY=0;exitDx=0;exitDy=0;" parent="1" source="bY0i02iAwmUVIYGJgVDJ-23" target="bY0i02iAwmUVIYGJgVDJ-6" edge="1">
          <mxGeometry width="50" height="50" relative="1" as="geometry">
            <mxPoint x="570" y="-90" as="sourcePoint" />
            <mxPoint x="570" y="-190" as="targetPoint" />
          </mxGeometry>
        </mxCell>
        <mxCell id="bY0i02iAwmUVIYGJgVDJ-23" value="Manages" style="rhombus;whiteSpace=wrap;html=1;direction=east;" parent="1" vertex="1">
          <mxGeometry x="470.5" y="-165" width="79" height="75" as="geometry" />
        </mxCell>
        <mxCell id="bY0i02iAwmUVIYGJgVDJ-27" value="" style="endArrow=none;html=1;rounded=0;exitX=1;exitY=0;exitDx=0;exitDy=0;entryX=0.5;entryY=1;entryDx=0;entryDy=0;" parent="1" source="zIdgOsClNJzlHkxYG_Qh-1" target="bY0i02iAwmUVIYGJgVDJ-23" edge="1">
          <mxGeometry width="50" height="50" relative="1" as="geometry">
            <mxPoint x="480" y="-87.5" as="sourcePoint" />
            <mxPoint x="530" y="-137.5" as="targetPoint" />
          </mxGeometry>
        </mxCell>
        <mxCell id="h6sOzdsHRQGS7UQ5DoFL-1" value="&lt;font style=&quot;font-size: 16px;&quot;&gt;&lt;b&gt;&lt;u&gt;Entity Relationship Diagram of Car Insurance Management System&lt;/u&gt;&lt;/b&gt;&lt;/font&gt;" style="text;strokeColor=none;align=center;fillColor=none;html=1;verticalAlign=middle;whiteSpace=wrap;rounded=0;" parent="1" vertex="1">
          <mxGeometry x="430" y="1030" width="540" height="30" as="geometry" />
        </mxCell>
      </root>
    </mxGraphModel>
  </diagram>
</mxfile>
